# xmcd CD database file
#
# Track frame offsets:
#	150
#	18825
#	31200
#	47915
#	66000
#	84675
#	107250
#	124200
#	146700
#
# Disc length: 2211 seconds
#
# Revision: 0
# Processed by: cddbd v1.5.1PL0 Copyright (c) Steve Scherf et al.
# Submitted via: CDex 1.51
#
DISCID=7208a109
DTITLE=円 英智 - 星の子ポーリー
DYEAR=1991
DGENRE=Other
TTITLE0=星の国の夜明け（Inst）
TTITLE1=お話しその１
TTITLE2=アクアク小僧（Vocal）
TTITLE3=お話しその２
TTITLE4=三日月海岸（Inst）
TTITLE5=お話しその３
TTITLE6=一ツ目鬼（Inst）
TTITLE7=お話しその４
TTITLE8=Star Child Poerie（Vocal）
EXTD=YEAR: 1991
EXTT0=
EXTT1=
EXTT2=
EXTT3=
EXTT4=
EXTT5=
EXTT6=
EXTT7=
EXTT8=
PLAYORDER=
